@startuml Kommunikation
[*] --> Powered_On: Power On
state Powered_On {
    Uninitialized : LED: Blue
    Counting_Pushups: LED: {color}
    Winner: LED: Blinking [{color}, Off]
    Looser: LED: Off

    Uninitialized--> Counting_Pushups: coap: /assign_color_id {color}
    Counting_Pushups --> Winner: coap: /set_to_winner
    Counting_Pushups --> Looser: coap: /set_to_looser
}
Powered_On --> [*]: Power Off
@enduml
